<svg width="39" height="38" viewBox="0 0 39 38" fill="none" xmlns="http://www.w3.org/2000/svg">
<path d="M38.6326 10.8477L32.3826 17.0977C32.1404 17.3438 31.8201 17.4649 31.4998 17.4649C31.1795 17.4649 30.8599 17.3428 30.6162 17.0986L24.3662 10.8486C23.8779 10.3604 23.8779 9.56934 24.3662 9.08106C24.8545 8.59278 25.6455 8.59278 26.1338 9.08106L30.2498 13.1992V1.21484C30.2498 0.523828 30.8095 0 31.4646 0C32.1197 0 32.7498 0.523828 32.7498 1.21484V13.1992L36.8669 9.08204C37.3552 8.59376 38.1462 8.59376 38.6345 9.08204C39.1228 9.57032 39.1208 10.3594 38.6326 10.8477Z" fill="black"/>
<path d="M18.75 13.625H11.25L8.47266 9.45781C8.05664 8.83437 8.50195 8 9.25195 8H20.748C21.498 8 21.9434 8.83437 21.5273 9.45781L18.75 13.625ZM11.25 15.5H18.75C18.9727 15.6465 19.2246 15.8105 19.459 15.9922C22.834 18.1191 30 22.7012 30 32.375C30 35.4805 27.4805 38 24.375 38H5.625C2.51836 38 0 35.4805 0 32.375C0 22.7012 7.16602 18.1191 10.4883 15.9922C10.7754 15.8105 11.0273 15.6465 11.25 15.5ZM16.1777 21.125C16.1777 20.4746 15.6504 19.9473 14.9473 19.9473C14.3496 19.9473 13.8223 20.4746 13.8223 21.125V21.4766C13.4941 21.5469 13.1309 21.6465 12.8906 21.7754C12.0176 22.1738 11.2559 22.9121 11.0684 23.9844C10.9629 24.582 11.0215 25.1621 11.2676 25.6836C11.5137 26.1992 11.8945 26.5625 12.2812 26.8262C12.9609 27.2891 13.8574 27.5586 14.543 27.7637L14.6719 27.7988C15.4922 28.0508 16.043 28.2324 16.3887 28.4844C16.5352 28.5898 16.5879 28.6719 16.6055 28.7246C16.6289 28.7715 16.6641 28.877 16.623 29.1113C16.5879 29.3164 16.4766 29.4922 16.1543 29.627C15.7969 29.7793 15.2168 29.8555 14.4668 29.7383C14.1152 29.6797 13.4883 29.4688 12.9316 29.2812C12.8027 29.2344 12.6738 29.1934 12.5566 29.1523C11.9414 28.9473 11.2793 29.2812 11.0742 29.8965C10.8691 30.5117 11.2031 31.1738 11.8184 31.3262C11.8887 31.4023 11.9766 31.4316 12.0762 31.4668C12.4863 31.625 13.2656 31.8711 13.8223 32V32.375C13.8223 33.0254 14.3496 33.5527 14.9473 33.5527C15.6504 33.5527 16.1777 33.0254 16.1777 32.375V32.0527C16.4883 31.9941 16.793 31.8535 17.0742 31.7832C18 31.3906 18.7383 30.6289 18.9316 29.5156C19.0371 28.9062 18.9902 28.3203 18.7559 27.7871C18.5273 27.2598 18.1582 26.873 17.7656 26.5918C17.0566 26.0703 16.1074 25.7891 15.3984 25.5723L15.2988 25.5605C14.5195 25.3086 13.957 25.1328 13.5996 24.8867C13.4473 24.7812 13.4004 24.7109 13.3887 24.6816C13.377 24.6582 13.3418 24.5879 13.377 24.3887C13.4004 24.2715 13.4883 24.0781 13.8574 23.9141C14.1855 23.7441 14.8184 23.6504 15.5332 23.709C15.791 23.8027 16.582 23.9551 16.8105 24.0137C17.4316 24.1836 18.0762 23.8086 18.2402 23.1816C18.4102 22.5605 18.0352 21.916 17.4082 21.752C17.1504 21.6816 16.5645 21.5645 16.1777 21.4941V21.125Z" fill="black"/>
</svg>
