<svg width="30" height="27" viewBox="0 0 30 27" fill="none" xmlns="http://www.w3.org/2000/svg">
<path d="M11.4023 0H18.5977C19.8105 0 20.8828 0.774609 21.2637 1.92305L21.873 3.75H26.25C28.3184 3.75 30 5.43164 30 7.5V22.5C30 24.5684 28.3184 26.25 26.25 26.25H3.75C1.67871 26.25 0 24.5684 0 22.5V7.5C0 5.43164 1.67871 3.75 3.75 3.75H8.12695L8.73633 1.92305C9.11719 0.774609 10.1895 0 11.4023 0ZM15 20.625C18.1055 20.625 20.625 18.1055 20.625 15C20.625 11.8418 18.1055 9.375 15 9.375C11.8418 9.375 9.375 11.8418 9.375 15C9.375 18.1055 11.8418 20.625 15 20.625Z" fill="white"/>
</svg>
