<svg width="34" height="31" viewBox="0 0 34 31" fill="none" xmlns="http://www.w3.org/2000/svg">
<path d="M3.125 25.5625C3.125 26.0781 3.47461 26.5 3.90625 26.5H23.4375C24.3018 26.5 25 27.3379 25 28.375C25 29.4121 24.3018 30.25 23.4375 30.25H3.90625C1.74902 30.25 0 28.1523 0 25.5625V5.875C0 4.83965 0.699707 4 1.5625 4C2.42529 4 3.125 4.83965 3.125 5.875V25.5625ZM16.7285 18.4492C16.1182 19.1816 15.1318 19.1816 14.5215 18.4492L11.7188 15.0918L7.35352 20.3242C6.74316 21.0566 5.75684 21.0566 5.14648 20.3242C4.53516 19.5918 4.53516 18.4082 5.14648 17.6758L10.6152 11.1133C11.2256 10.3809 12.2119 10.3809 12.8223 11.1133L15.625 14.4707L20.7715 8.30078C21.3818 7.56719 22.3682 7.56719 22.9785 8.30078C23.5889 9.0332 23.5889 10.2168 22.9785 10.9492L16.7285 18.4492Z" fill="black"/>
<path d="M29.5001 0C30.0532 0 30.5001 0.447812 30.5001 1V2.115C30.5501 2.12156 30.597 2.12875 30.647 2.13594C30.9782 2.18531 31.9657 2.34437 32.3719 2.44719C32.8782 2.58281 33.2313 3.12812 33.0938 3.6625C32.9594 4.19688 32.4157 4.52187 31.8782 4.3875C31.5876 4.28437 30.7032 4.16563 30.3532 4.11562C29.3501 3.96562 28.4908 4.04063 27.9002 4.26562C27.3289 4.48438 27.0918 4.79375 27.0289 5.14062C26.9683 5.475 27.0143 5.66563 27.0693 5.78438C27.1283 5.90938 27.2436 6.05 27.4733 6.20312C27.9814 6.5375 28.7564 6.7625 29.7626 7.03438L29.8501 7.05937C30.7376 7.3 31.8251 7.59688 32.6313 8.13125C33.0719 8.425 33.4875 8.82187 33.7438 9.37187C34.0031 9.92812 34.0594 10.5531 33.9406 11.1906C33.7219 12.4062 32.8782 13.2 31.8876 13.6125C31.4626 13.7875 30.9938 13.9 30.5001 13.9563V15C30.5001 15.5531 30.0532 16 29.5001 16C28.947 16 28.5001 15.5531 28.5001 15V13.9094C28.4877 13.9094 28.472 13.8781 28.4595 13.9031H28.4533C27.6939 13.7844 26.4399 13.4563 25.594 13.0813C25.0893 12.8562 24.8621 12.2656 25.0865 11.7594C25.3109 11.2562 25.9018 11.0281 26.3783 11.2531C27.0596 11.5437 28.1345 11.8281 28.7564 11.925C29.7564 12.075 30.5782 11.9875 31.1345 11.7625C31.6626 11.5469 31.9032 11.2344 31.9719 10.8594C32.0313 10.525 31.9876 10.3344 31.9313 10.2156C31.8719 10.0906 31.7563 9.95 31.5282 9.79688C31.0188 9.4625 30.2439 9.2375 29.2376 8.96562L29.1501 8.94063C28.2627 8.7 27.1746 8.40312 26.3677 7.86875C25.9268 7.575 25.5137 7.17813 25.2571 6.62813C24.9968 6.07188 24.9402 5.44688 25.0612 4.78125C25.2824 3.56562 26.158 2.79031 27.1864 2.39781C27.5933 2.2425 28.0345 2.14031 28.5001 2.08531V1C28.5001 0.447812 28.947 0 29.5001 0Z" fill="black"/>
</svg>
