<svg width="30" height="27" viewBox="0 0 30 27" fill="none" xmlns="http://www.w3.org/2000/svg">
<path d="M29.5938 17.5156C28.9104 16.588 27.6073 16.3875 26.6807 17.0745L20.4464 21.6667H14.1651C13.7095 21.6667 13.3786 21.2891 13.3786 20.8339C13.3786 20.3782 13.7562 20.0006 14.1651 20.0006H18.2406C19.0271 20.0006 19.8422 19.4339 19.9786 18.6141C20.1479 17.5724 19.3474 16.6672 18.3318 16.6672H9.95312C8.59375 16.6672 7.18646 17.149 6.09271 18.0344L3.67083 20.0001L0.786458 19.9531C0.377656 19.9531 0 20.3802 0 20.8333V25.8323C0 26.2917 0.377656 26.6667 0.786458 26.6667H18.8125C19.9599 26.6667 21.1 26.2923 22.026 25.6109L29.0625 20.4276C30.0781 19.7448 30.276 18.4427 29.5938 17.5156ZM14.5469 9.11458C14.151 9.05729 13.6302 8.86979 13.1719 8.70312L12.9167 8.61458C12.2656 8.33854 11.5521 8.72396 11.3229 9.32812C11.0937 9.93229 11.4334 10.6927 12.0828 10.924L12.3253 11.0102C12.7672 11.1696 13.2565 11.3277 13.7518 11.4431V12.0833C13.7518 12.7734 14.3107 13.3333 15.0008 13.3333C15.6909 13.3333 16.2508 12.7734 16.2508 12.0833V11.5417C17.5669 11.2436 18.4841 10.4036 18.6518 9.16042C19.1043 6.55365 16.6263 5.84479 15.2966 5.4651L15.0208 5.36979C13.651 4.98125 13.7292 4.81354 13.7656 4.59948C13.8258 4.24708 14.5625 4.07552 15.4432 4.21453C15.7004 4.25522 16.0354 4.34719 16.4667 4.49693C17.1193 4.7199 17.8318 4.37651 18.0562 3.72401C18.2807 3.07151 17.936 2.35995 17.2833 2.13391C16.8874 1.99708 16.5583 1.90693 16.251 1.83594V1.25C16.251 0.559896 15.6911 0 15.001 0C14.3109 0 13.7521 0.559896 13.7521 1.25V1.79792C12.4375 2.09531 11.5156 2.92969 11.2552 4.17344C10.8542 6.75 13.3698 7.48958 14.3177 7.77083L14.6561 7.86849C16.3051 8.34047 16.2785 8.48776 16.2364 8.73516C16.1771 9.08854 15.4427 9.26042 14.5469 9.11458Z" fill="black"/>
</svg>
