<svg width="30" height="41" viewBox="0 0 30 41" fill="none" xmlns="http://www.w3.org/2000/svg">
<path d="M29.151 33.8538L22.1146 39.0366C21.1927 39.7184 20.0521 40.0934 18.8594 40.0934H0.786458C0.330781 40.0934 0 39.716 0 39.2606V34.2611C0 33.8055 0.377604 33.4267 0.786458 33.4267L3.67031 33.428L6.09219 31.4623C7.13906 30.6238 8.54635 30.0951 9.9526 30.0951H18.2391C19.2547 30.0951 20.0552 30.9998 19.8859 32.0415C19.7492 32.8618 18.9812 33.428 18.1479 33.428H14.1198C13.6641 33.428 13.3333 33.8055 13.3333 34.2144C13.3333 34.6233 13.7109 35.0009 14.1198 35.0009H20.401L26.6354 30.4087C27.5625 29.7217 28.8651 29.9221 29.5484 30.8497C30.276 31.8694 30.0781 33.1715 29.151 33.8538Z" fill="black"/>
<path d="M10.9182 14.0039L18.5672 14.932L26.2172 14.0039C26.4266 13.9776 26.6297 14.087 26.7266 14.2764L28.0297 16.882C28.3078 17.4414 28.011 18.1195 27.4078 18.2914L22.3047 19.7507C21.8703 19.8726 21.4047 19.6914 21.1735 19.2757L18.5672 14.932L15.961 19.2757C15.7297 19.6914 15.2641 19.8726 14.8297 19.7507L9.72568 18.2914C9.12381 18.1195 8.82609 17.4414 9.106 16.882L10.4091 14.2764C10.5038 14.087 10.7079 13.9776 10.9182 14.0039ZM18.6016 16.9601L20.3141 19.8164C20.7797 20.5914 21.7078 20.932 22.5797 20.7101L26.5672 19.5726V24.7882C26.5672 25.4757 26.0985 26.0757 25.4297 26.2445L19.0516 27.8382C18.7329 27.9195 18.4016 27.9195 18.0829 27.8382L11.7047 26.2445C11.0357 26.0757 10.5672 25.4757 10.5672 24.7882V19.5726L14.5547 20.7101C15.4266 20.932 16.3547 20.5914 16.8204 19.8164L18.5329 16.9601H18.6016Z" fill="black"/>
<path d="M18.5001 0C18.9303 0 19.2779 0.335859 19.2779 0.75V1.58625C19.3167 1.59117 19.3532 1.59656 19.3921 1.60195C19.6497 1.63898 20.4177 1.75828 20.7337 1.83539C21.1275 1.93711 21.4021 2.34609 21.2952 2.74687C21.1906 3.14766 20.7677 3.39141 20.3497 3.29062C20.1237 3.21328 19.4358 3.12422 19.1636 3.08672C18.3834 2.97422 17.715 3.03047 17.2557 3.19922C16.8114 3.36328 16.6269 3.59531 16.5781 3.85547C16.5309 4.10625 16.5666 4.24922 16.6094 4.33828C16.6554 4.43203 16.745 4.5375 16.9237 4.65234C17.3189 4.90312 17.9216 5.07188 18.7043 5.27578L18.7723 5.29453C19.4626 5.475 20.3084 5.69766 20.9354 6.09844C21.2781 6.31875 21.6014 6.61641 21.8007 7.02891C22.0024 7.44609 22.0462 7.91484 21.9538 8.39297C21.7837 9.30469 21.1275 9.9 20.357 10.2094C20.0264 10.3406 19.6619 10.425 19.2779 10.4672V11.25C19.2779 11.6648 18.9303 12 18.5001 12C18.0699 12 17.7223 11.6648 17.7223 11.25V10.432C17.7126 10.432 17.7005 10.4086 17.6907 10.4273H17.6859C17.0953 10.3383 16.1199 10.0922 15.462 9.81094C15.0695 9.64219 14.8928 9.19922 15.0673 8.81953C15.2418 8.44219 15.7014 8.27109 16.072 8.43984C16.6019 8.65781 17.438 8.87109 17.9216 8.94375C18.6994 9.05625 19.3386 8.99062 19.7712 8.82187C20.182 8.66016 20.3691 8.42578 20.4226 8.14453C20.4688 7.89375 20.4348 7.75078 20.391 7.66172C20.3448 7.56797 20.2549 7.4625 20.0775 7.34766C19.6813 7.09688 19.0786 6.92812 18.2959 6.72422L18.2279 6.70547C17.5376 6.525 16.6913 6.30234 16.0638 5.90156C15.7208 5.68125 15.3995 5.38359 15.2 4.97109C14.9975 4.55391 14.9535 4.08516 15.0476 3.58594C15.2197 2.67422 15.9007 2.09273 16.7006 1.79836C17.017 1.68188 17.3602 1.60523 17.7223 1.56398V0.75C17.7223 0.335859 18.0699 0 18.5001 0Z" fill="black"/>
</svg>
